<svg id="github_logo_cabecera" data-name="github logo cabecera" xmlns="http://www.w3.org/2000/svg" width="69.768" height="68.316" viewBox="0 0 69.768 68.316">
  <g id="Grupo_1" data-name="Grupo 1">
    <path id="Trazado_12" data-name="Trazado 12" d="M34.88,5.329A35.044,35.044,0,0,0,23.861,73.584c1.744.323,2.381-.759,2.381-1.688,0-.833-.031-3.035-.048-5.956-9.7,2.115-11.752-4.7-11.752-4.7C12.859,57.2,10.57,56.12,10.57,56.12c-3.17-2.172.235-2.128.235-2.128,3.5.249,5.342,3.611,5.342,3.611,3.113,5.35,8.167,3.807,10.156,2.908a7.476,7.476,0,0,1,2.215-4.683c-7.744-.885-15.89-3.89-15.89-17.307a13.575,13.575,0,0,1,3.593-9.4,12.62,12.62,0,0,1,.34-9.266s2.93-.942,9.593,3.589a32.927,32.927,0,0,1,17.468,0c6.658-4.531,9.584-3.589,9.584-3.589a12.639,12.639,0,0,1,.349,9.266,13.549,13.549,0,0,1,3.584,9.4c0,13.452-8.154,16.413-15.925,17.281,1.251,1.081,2.368,3.218,2.368,6.484,0,4.683-.044,8.459-.044,9.606,0,.938.628,2.028,2.4,1.683A35.047,35.047,0,0,0,34.88,5.329Z" transform="translate(0 -5.329)" fill="#fff"/>
  </g>
</svg>
