<svg xmlns="http://www.w3.org/2000/svg" width="69.132" height="69.132" viewBox="0 0 69.132 69.132">
  <path id="linkedin_logo_cabecera" data-name="linkedin logo cabecera" d="M34.566,0A34.566,34.566,0,1,0,69.132,34.566,34.57,34.57,0,0,0,34.566,0ZM24.522,52.254H16.1V26.927h8.418ZM20.313,23.469h-.055a4.358,4.358,0,0,1-4.652-4.375c0-2.485,1.883-4.376,4.763-4.376a4.375,4.375,0,0,1,4.707,4.376c0,2.43-1.827,4.375-4.763,4.375ZM54.877,52.254H46.459V38.7c0-3.405-1.219-5.727-4.265-5.727a4.608,4.608,0,0,0-4.319,3.079A5.765,5.765,0,0,0,37.6,38.11V52.254H29.18s.11-22.951,0-25.327H37.6v3.586a8.357,8.357,0,0,1,7.587-4.18c5.539,0,9.692,3.62,9.692,11.4Zm0,0" fill="#fff"/>
</svg>
